<svg width="80" height="80" viewBox="0 0 80 80" fill="none" xmlns="http://www.w3.org/2000/svg">
<path fill-rule="evenodd" clip-rule="evenodd" d="M63.388 0.927002C60.399 2.21 57 6.843 57 9.635C57 11.716 57.467 12 60.883 12C63.922 12 64.88 11.566 65.288 10.005C65.926 7.569 68.735 6.335 70.234 7.834C72.019 9.619 71.493 14.842 69.284 17.258C66.556 20.242 64 25.414 64 27.95C64 29.675 64.634 30 68 30C71.517 30 72 29.72 72 27.68C72 26.404 73.688 23.389 75.75 20.979C79.056 17.117 79.5 15.973 79.5 11.322C79.5 6.956 79.046 5.591 76.868 3.413C73.998 0.543002 67.201 -0.710998 63.388 0.927002ZM25.45 17.407C15.361 21.801 12.978 35.213 20.882 43.118C27.369 49.604 36.631 49.604 43.118 43.118C55.529 30.706 41.566 10.387 25.45 17.407ZM65.35 35.765C62.901 37.33 63.349 42.659 66 43.5C69.433 44.59 72 43.149 72 40.133C72 35.88 68.632 33.669 65.35 35.765ZM20.23 57.486C12.825 59.57 9.438 61.509 4.392 66.555C0.496 70.451 0 71.459 0 75.474V80H32H64V75.452C64 71.353 63.526 70.431 59.191 66.096C52.89 59.795 45.399 56.909 34 56.39C28.421 56.136 23.689 56.513 20.23 57.486Z" fill="white"/>
</svg>
